<svg data-v-fde0c5aa="" xmlns="http://www.w3.org/2000/svg" viewBox="0 0 300 300" class="font"><!----><defs data-v-fde0c5aa=""><!----></defs><rect data-v-fde0c5aa="" fill="transparent" x="0" y="0" width="300px" height="300px" class="logo-background-square"></rect><defs data-v-fde0c5aa=""><linearGradient data-v-fde0c5aa="" gradientTransform="rotate(25)" id="e842317c-8643-4cee-be06-b8ed96e264da" x1="0%" y1="0%" x2="100%" y2="0%"><stop data-v-fde0c5aa="" offset="0%" stop-color="#7D7D7D" stop-opacity="1"></stop><stop data-v-fde0c5aa="" offset="100%" stop-color="#B65906" stop-opacity="1"></stop></linearGradient></defs><g data-v-fde0c5aa="" id="937eb1a0-9274-4385-a5e3-1c7be0a13301" fill="url(#e842317c-8643-4cee-be06-b8ed96e264da)" transform="matrix(5.381234645843506,0,0,5.381234645843506,40.65163386202943,89.4295815020065)"><path d="M2.23 7.48L2.23 7.48L2.23 7.48Q1.63 7.48 1.32 7.18L1.32 7.18L1.32 7.18Q1.01 6.89 1.01 6.47L1.01 6.47L1.01 6.47Q1.01 6.05 1.35 5.77L1.35 5.77L1.35 5.77Q1.69 5.50 2.25 5.50L2.25 5.50L2.25 5.50Q2.81 5.50 3.14 5.78L3.14 5.78L3.14 5.78Q3.47 6.06 3.47 6.47L3.47 6.47L3.47 6.47Q3.47 6.89 3.14 7.18L3.14 7.18L3.14 7.18Q2.82 7.48 2.23 7.48ZM0.33 17.01L-0.12 16.13L0.21 15.89L0.21 15.89Q0.61 15.58 0.78 15.35L0.78 15.35L0.78 15.35Q0.96 15.12 1.10 14.88L1.10 14.88L1.10 14.88Q1.24 14.64 1.33 14.38L1.33 14.38L1.33 14.38Q1.52 13.79 1.52 13.06L1.52 13.06L1.52 9.83L0.51 9.26L0.68 8.36L2.88 8.21L3.17 8.48L3.17 13.37L3.17 13.37Q3.17 15.47 1.37 16.53L1.37 16.53L1.37 16.53Q1.05 16.71 0.66 16.89L0.66 16.89L0.33 17.01ZM10.53 6.74L10.53 9.56L12.01 9.56L12.01 9.56Q12.67 9.13 12.67 8.22L12.67 8.22L12.67 8.22Q12.67 7.55 12.27 7.13L12.27 7.13L12.27 7.13Q11.87 6.70 10.99 6.70L10.99 6.70L10.99 6.70Q10.77 6.70 10.53 6.74L10.53 6.74ZM10.53 10.41L10.53 13.43L11.67 13.43L11.67 13.43Q12.37 13.43 12.79 13.03L12.79 13.03L12.79 13.03Q13.21 12.63 13.21 11.99L13.21 11.99L13.21 11.99Q13.21 11.35 12.77 10.88L12.77 10.88L12.77 10.88Q12.33 10.41 11.57 10.41L11.57 10.41L10.53 10.41ZM11.35 14.40L7.38 14.40L7.47 13.67L8.61 13.24L8.61 7.18L7.44 6.92L7.51 6.12L7.51 6.12Q9.78 5.80 10.93 5.80L10.93 5.80L10.93 5.80Q12.09 5.80 12.75 5.97L12.75 5.97L12.75 5.97Q13.41 6.15 13.79 6.44L13.79 6.44L13.79 6.44Q14.53 7.01 14.53 7.84L14.53 7.84L14.53 7.84Q14.53 8.42 14.16 8.97L14.16 8.97L14.16 8.97Q13.78 9.51 13.13 9.73L13.13 9.73L13.13 9.80L13.13 9.80Q14.11 9.85 14.64 10.45L14.64 10.45L14.64 10.45Q15.17 11.05 15.17 11.80L15.17 11.80L15.17 11.80Q15.17 12.96 14.21 13.68L14.21 13.68L14.21 13.68Q13.25 14.40 11.35 14.40L11.35 14.40ZM18.41 9.13L18.41 9.13L18.41 9.13Q17.25 9.13 17.25 10.90L17.25 10.90L17.25 10.90Q17.25 12.56 17.88 13.22L17.88 13.22L17.88 13.22Q18.22 13.58 18.76 13.58L18.76 13.58L18.76 13.58Q19.30 13.58 19.58 13.15L19.58 13.15L19.58 13.15Q19.85 12.71 19.85 12.12L19.85 12.12L19.85 12.12Q19.85 11.53 19.81 11.16L19.81 11.16L19.81 11.16Q19.78 10.78 19.68 10.40L19.68 10.40L19.68 10.40Q19.58 10.02 19.42 9.75L19.42 9.75L19.42 9.75Q19.07 9.13 18.41 9.13ZM15.68 12.58L15.68 12.58L15.68 12.58Q15.50 12.02 15.50 11.31L15.50 11.31L15.50 11.31Q15.50 10.60 15.78 9.96L15.78 9.96L15.78 9.96Q16.06 9.32 16.52 8.91L16.52 8.91L16.52 8.91Q17.49 8.06 18.79 8.06L18.79 8.06L18.79 8.06Q20.08 8.06 20.85 8.88L20.85 8.88L20.85 8.88Q21.62 9.71 21.62 11.21L21.62 11.21L21.62 11.21Q21.62 12.72 20.75 13.65L20.75 13.65L20.75 13.65Q19.89 14.58 18.53 14.58L18.53 14.58L18.53 14.58Q16.29 14.58 15.68 12.58ZM23.80 11.10L23.80 11.10L23.80 11.10Q23.80 12.11 24.13 12.64L24.13 12.64L24.13 12.64Q24.47 13.17 25.03 13.17L25.03 13.17L25.03 13.17Q25.60 13.17 26.13 12.73L26.13 12.73L26.13 10.04L26.13 10.04Q25.87 9.66 25.54 9.46L25.54 9.46L25.54 9.46Q25.22 9.26 24.89 9.26L24.89 9.26L24.89 9.26Q24.56 9.26 24.29 9.55L24.29 9.55L24.29 9.55Q23.80 10.08 23.80 11.10ZM24.27 14.53L24.27 14.53Q23.26 14.53 22.65 13.77L22.65 13.77L22.65 13.77Q22.05 13.02 22.05 11.93L22.05 11.93L22.05 11.93Q22.05 10.84 22.44 10.02L22.44 10.02L22.44 10.02Q22.84 9.21 23.57 8.71L23.57 8.71L23.57 8.71Q24.30 8.20 25.20 8.20L25.20 8.20L25.20 8.20Q25.45 8.20 25.74 8.27L25.74 8.27L25.74 8.27Q26.03 8.35 26.18 8.45L26.18 8.45L26.22 8.45L26.15 7.77L26.15 7.23L25.03 6.69L25.17 5.88L27.45 5.70L27.73 5.97L27.73 12.38L27.73 12.38Q27.73 12.88 27.90 13.05L27.90 13.05L27.90 13.05Q28.07 13.21 28.57 13.36L28.57 13.36L28.82 13.43L28.70 14.29L28.70 14.29Q27.21 14.83 26.58 14.30L26.58 14.30L26.58 14.30Q26.28 14.05 26.20 13.60L26.20 13.60L26.17 13.54L26.10 13.52L26.10 13.52Q25.76 13.99 25.34 14.26L25.34 14.26L25.34 14.26Q24.91 14.53 24.27 14.53L24.27 14.53ZM28.90 16.04L28.90 16.04L28.90 16.04Q28.90 15.39 29.37 14.95L29.37 14.95L29.37 14.95Q29.91 15.42 30.65 15.42L30.65 15.42L30.65 15.42Q31.40 15.42 31.73 14.70L31.73 14.70L31.83 14.46L29.80 9.40L28.94 9.06L29.06 8.26L32.39 8.26L32.29 9.05L31.55 9.37L32.73 12.54L34.00 9.42L33.15 9.05L33.29 8.26L35.90 8.26L35.81 9.05L35.14 9.40L32.90 14.63L32.90 14.63Q32.33 15.96 31.74 16.48L31.74 16.48L31.74 16.48Q31.14 17.00 30.21 17.00L30.21 17.00L30.21 17.00Q29.69 17.00 29.29 16.71L29.29 16.71L29.29 16.71Q28.90 16.42 28.90 16.04ZM38.31 14.64L38.31 14.64L38.31 14.64Q37.33 14.64 36.69 14.26L36.69 14.26L36.69 14.26Q36.05 13.89 36.05 13.41L36.05 13.41L36.05 13.41Q36.05 12.92 36.34 12.65L36.34 12.65L36.34 12.65Q36.63 12.39 37.15 12.35L37.15 12.35L37.15 12.35Q37.35 13.04 37.69 13.40L37.69 13.40L37.69 13.40Q38.02 13.75 38.42 13.75L38.42 13.75L38.42 13.75Q39.25 13.75 39.25 13.19L39.25 13.19L39.25 13.19Q39.25 12.78 38.47 12.41L38.47 12.41L38.47 12.41Q37.67 12.03 37.02 11.55L37.02 11.55L37.02 11.55Q36.69 11.31 36.47 10.93L36.47 10.93L36.47 10.93Q36.24 10.55 36.24 10.17L36.24 10.17L36.24 10.17Q36.24 9.78 36.38 9.45L36.38 9.45L36.38 9.45Q36.51 9.12 36.78 8.80L36.78 8.80L36.78 8.80Q37.04 8.48 37.53 8.28L37.53 8.28L37.53 8.28Q38.01 8.08 38.76 8.08L38.76 8.08L38.76 8.08Q39.50 8.08 40.05 8.38L40.05 8.38L40.05 8.38Q40.59 8.68 40.59 9.18L40.59 9.18L40.59 9.18Q40.59 9.67 40.27 9.96L40.27 9.96L40.27 9.96Q39.95 10.25 39.46 10.29L39.46 10.29L39.33 9.86L39.33 9.86Q39.07 8.87 38.29 8.87L38.29 8.87L38.29 8.87Q37.99 8.87 37.81 9.06L37.81 9.06L37.81 9.06Q37.63 9.24 37.63 9.50L37.63 9.50L37.63 9.50Q37.63 9.76 37.86 9.98L37.86 9.98L37.86 9.98Q38.09 10.21 38.44 10.38L38.44 10.38L38.44 10.38Q38.79 10.55 39.19 10.78L39.19 10.78L39.19 10.78Q39.59 11.01 39.94 11.25L39.94 11.25L39.94 11.25Q40.29 11.49 40.52 11.87L40.52 11.87L40.52 11.87Q40.76 12.26 40.76 12.71L40.76 12.71L40.76 12.71Q40.76 13.58 40.02 14.11L40.02 14.11L40.02 14.11Q39.29 14.64 38.31 14.64Z"></path></g><!----><!----></svg>