<svg data-v-423bf9ae="" xmlns="http://www.w3.org/2000/svg" viewBox="0 0 201.12396694214877 60" class="font"><!----><!----><!----><g data-v-423bf9ae="" id="b9563645-a70c-4860-bd63-df47d69c0f6e" fill="white" transform="matrix(6.347107410430908,0,0,6.347107410430908,0.8181799650192261,0.0743802934885025)"><path d="M-0.13 6.87C-0.13 8.55 0.60 9.44 2.06 9.44C3.51 9.44 4.21 8.55 4.21 6.87L4.21 0.50C4.21 0.22 3.99 0 3.72 0L3.33 0C3.05 0 2.83 0.22 2.83 0.50L2.83 6.87C2.83 7.69 2.56 8.05 2.06 8.05C1.88 8.05 1.68 8.04 1.55 7.91C1.39 7.74 1.27 7.45 1.27 6.87L1.27 6.68C1.27 6.41 1.04 6.19 0.77 6.19L0.38 6.19C0.10 6.19-0.13 6.41-0.13 6.68ZM7.22 9.44C8.86 9.44 9.59 8.54 9.59 6.73C9.59 5.88 9.35 5.17 8.99 4.72L8.99 4.72C8.99 4.72 9.59 4.00 9.59 2.70C9.59 0.90 8.86 0 7.22 0L5.84 0C5.56 0 5.33 0.22 5.33 0.50L5.33 8.93C5.33 9.21 5.56 9.44 5.84 9.44ZM7.22 1.39C7.91 1.39 8.19 1.76 8.19 2.70C8.19 3.64 7.91 4.02 7.22 4.02L6.73 4.02L6.73 1.39ZM7.22 5.40C7.91 5.40 8.19 5.78 8.19 6.73C8.19 7.67 7.91 8.05 7.22 8.05L6.73 8.05L6.73 5.40ZM10.65 6.69C10.65 7.80 10.96 8.44 11.40 8.88C11.86 9.32 12.45 9.44 12.95 9.44C13.47 9.44 14.06 9.32 14.52 8.88C14.95 8.44 15.25 7.80 15.25 6.69L15.25 2.73C15.25 0.95 14.49 0 12.95 0C11.42 0 10.65 0.97 10.65 2.73ZM12.05 2.73C12.05 1.82 12.33 1.39 12.95 1.39C13.55 1.39 13.85 1.79 13.85 2.73L13.85 6.69C13.85 7.64 13.54 8.05 12.95 8.05C12.35 8.05 12.05 7.62 12.05 6.69ZM18.30 9.44C19.98 9.44 20.76 8.48 20.76 6.66L20.76 2.77C20.76 0.95 19.98 0 18.30 0L16.87 0C16.59 0 16.37 0.22 16.37 0.50L16.37 8.93C16.37 9.21 16.59 9.44 16.87 9.44ZM18.30 1.39C19.04 1.39 19.35 1.83 19.35 2.77L19.35 6.66C19.35 7.60 19.04 8.05 18.30 8.05L17.75 8.05L17.75 1.39ZM23.07 0.29C23.02 0.15 22.78 0 22.61 0L22.16 0C21.77 0 21.55 0.35 21.70 0.70C22.30 2.10 22.92 3.49 23.52 4.89L23.52 8.93C23.52 9.21 23.74 9.44 24.01 9.44L24.40 9.44C24.68 9.44 24.91 9.21 24.91 8.93L24.91 4.90L26.71 0.70C26.85 0.35 26.63 0 26.25 0L25.79 0C25.63 0 25.40 0.15 25.33 0.29L24.21 2.87ZM26.94 6.69C26.94 8.53 27.71 9.42 29.25 9.42C30.73 9.42 31.56 8.58 31.56 7.01C31.56 5.66 30.62 4.94 29.69 4.23L29.71 4.23C29.02 3.70 28.34 3.15 28.34 2.44C28.34 1.71 28.66 1.39 29.25 1.39C29.86 1.39 30.16 1.81 30.16 2.73L30.16 2.93C30.16 3.21 30.38 3.43 30.66 3.43L31.05 3.43C31.33 3.43 31.56 3.21 31.56 2.93L31.56 2.73C31.56 0.95 30.76-0.01 29.25-0.01C27.76-0.01 26.94 0.90 26.94 2.48C26.94 3.86 27.90 4.62 28.83 5.35L28.83 5.33C29.51 5.87 30.16 6.38 30.16 7.04C30.16 7.78 29.83 8.04 29.25 8.04C29.05 8.04 28.81 8.01 28.66 7.85C28.46 7.69 28.34 7.36 28.34 6.69L28.34 6.51C28.34 6.23 28.10 6.01 27.83 6.01L27.44 6.01C27.16 6.01 26.94 6.23 26.94 6.51Z"></path></g><!----><!----></svg>